<?xml version="1.0" encoding="utf-8" ?><svg xmlns="http://www.w3.org/2000/svg" xmlns:xlink="http://www.w3.org/1999/xlink" width="1024" height="1024" viewBox="0 0 1024 1024"><path fill="#E2E2E2" d="M0 0L1024 0L1024 1024L0 1024L0 0ZM252.799 294.111C252.654 303.587 252.659 313.065 252.814 322.542C267.711 322.772 282.611 322.8 297.508 322.624L297.51 337.988C282.599 338.003 267.657 337.811 252.75 338.069L252.758 362.963L275.846 363.004C275.867 368.21 275.981 373.434 275.866 378.639L252.717 378.789C252.642 386.756 252.656 394.724 252.757 402.691C267.571 402.769 282.516 402.314 297.308 402.805L297.288 418.149C282.447 418.135 267.566 417.882 252.73 418.145C252.687 426.093 252.691 434.041 252.742 441.989L275.781 442.046C275.831 447.189 275.973 452.351 275.818 457.493L252.632 457.673L252.648 481.203C267.599 481.25 282.577 481.097 297.523 481.36L297.543 497.005L252.786 497.128C252.727 504.811 252.721 512.494 252.77 520.178C260.373 520.183 268.03 519.995 275.627 520.248C275.633 525.482 275.713 530.727 275.614 535.959L252.9 536.016L252.907 560.093C267.753 560.065 282.688 559.684 297.524 560.065C297.652 565.271 297.691 570.48 297.639 575.687L252.653 575.643L252.58 610.054C267.52 610.056 282.509 609.825 297.445 610.176L297.48 625.492L279.75 625.532C270.733 625.568 261.701 625.495 252.687 625.672C252.61 633.534 252.581 641.397 252.6 649.259C260.148 649.227 267.726 649.049 275.272 649.202L275.229 665.22C267.757 665.227 260.244 665.081 252.779 665.371C252.606 673.42 252.541 681.471 252.585 689.521C267.566 689.558 282.6 689.325 297.574 689.675C297.563 694.776 297.607 699.885 297.523 704.985C282.519 704.993 267.515 705.077 252.511 705.238L252.484 731.511L347.478 731.274L347.341 294.218C315.827 293.997 284.313 293.961 252.799 294.111ZM475.493 293.96C475.254 317.071 474.694 342.035 475.671 365.019L488.88 365.062C488.879 360.707 488.788 356.331 488.989 351.981C490.44 349.824 492.095 347.925 493.811 345.982C497.927 352.113 502.822 358.556 505.988 365.219C511.567 365.284 517.169 365.256 522.745 365.438C520.6 362.393 518.482 359.33 516.391 356.248C512.13 350.144 507.576 344.022 503.997 337.484C509.275 330.732 515.332 324.658 520.653 317.951L504.426 317.949C499.479 324.385 494.488 330.786 489.451 337.152L489.518 293.972L475.493 293.96ZM659.535 296.491C657.041 297.767 655.063 298.902 654.266 301.756C653.819 303.355 654.102 305.053 654.972 306.46C655.963 308.063 657.757 309.411 659.609 309.824C660.86 310.102 662.253 310.026 663.53 310.014C665.76 309.063 667.467 308.098 668.438 305.761C669.084 304.208 669.065 302.517 668.412 300.965C667.653 299.162 666.005 297.549 664.181 296.834C662.75 296.273 661.043 296.447 659.535 296.491ZM455.664 297.097C453.268 297.492 451.279 299.163 450.476 301.454C449.673 303.745 450.185 306.292 451.81 308.096C453.434 309.9 455.914 310.674 458.277 310.114C461.759 309.289 463.962 305.853 463.258 302.344C462.554 298.834 459.195 296.514 455.664 297.097ZM618.295 300.624C611.878 301.829 606.153 303.625 602.33 309.375C599.805 313.172 598.316 318.226 599.463 322.749C600.717 327.694 605.043 331.361 609.311 333.762C614.904 336.909 627.005 339.372 628.862 346.279C629.238 347.678 629.126 349.313 628.464 350.614C627.328 352.845 624.607 354.107 622.283 354.641C615.111 356.289 606.475 352.871 599.651 350.738L599.456 362.315C606.885 365.225 614.128 366.504 622.118 365.975C628.962 364.887 636.304 363.228 640.606 357.235C643.509 353.19 644.766 347.022 643.89 342.147C642.993 337.155 639.843 333.394 635.687 330.661C629.707 326.728 617.196 324.595 614.084 317.88C614.126 316.177 614.382 315.156 615.608 313.909C617.991 311.484 620.733 311.311 623.952 311.424C629.36 311.616 634.248 313.704 639.056 315.99C639.424 312.112 639.706 308.227 639.9 304.336C632.811 301.023 626.053 300.064 618.295 300.624ZM390.771 301.425C390.465 322.753 390.679 344.099 390.642 365.43C402.334 365.39 425.379 368.124 434.058 359.269C435.265 358.038 436.252 356.633 437.105 355.141C438.845 350.545 439.748 345.956 437.705 341.243C435.56 336.294 431.076 333.625 426.224 331.834C430.278 328.849 433.82 325.538 434.735 320.323C435.456 316.207 434.465 311.594 431.911 308.262C428.57 303.903 423.054 302.095 417.779 301.576C408.962 300.708 399.644 301.337 390.771 301.425ZM546.264 316.682C539.479 317.398 533.809 319.269 529.375 324.814C524.603 330.783 523.204 338.796 524.149 346.241C524.895 352.116 527.299 357.585 532.09 361.254C539.193 366.693 549.286 366.879 557.757 365.585C561.411 365.027 564.958 364.073 568.489 362.999L568.272 352.485C561.267 354.925 550.345 357.875 543.277 354.293C540.728 353.001 539.341 351.269 538.538 348.55C538.263 347.619 538.255 346.863 538.294 345.904C539.408 344.733 541.389 344.833 542.972 344.8C552.136 344.608 561.323 345.057 570.492 344.891C570.697 337.103 570.795 329.079 565.168 322.914C560.684 318.002 554.067 316.767 547.705 316.656C547.224 316.648 546.744 316.668 546.264 316.682ZM745.668 316.623C739.049 317.811 733.753 319.836 729.69 325.565C725.356 331.677 723.993 340.045 725.304 347.365C726.349 353.2 729.421 358.324 734.346 361.687C742.086 366.969 752.654 366.838 761.48 364.943C764.091 364.382 766.599 363.52 769.116 362.639C769.086 359.5 769.336 355.971 768.615 352.919L767.832 352.492L767.376 352.68C760.707 355.268 751.952 357.473 745.052 354.436C742.161 353.164 740.465 351.238 739.435 348.283C739.108 347.345 739.055 346.561 739.036 345.578C739.91 344.493 740.178 344.662 741.525 344.51C749.082 343.66 763.075 344.835 771.285 345.03C771.564 336.877 771.491 328.712 765.369 322.442C761.046 318.014 754.984 316.456 748.963 316.521C747.864 316.536 746.766 316.57 745.668 316.623ZM680.95 317.67C680.807 321.188 680.747 324.675 680.817 328.196L702.793 328.062C694.257 337.144 686.278 346.478 678.996 356.606L679.422 365.011L716.625 365.056L717.914 364.81C719.18 362.401 718.485 357.23 718.413 354.438L696.77 354.343C703.268 345.16 711.447 337.264 718.169 328.238C718.141 324.695 718.17 321.142 718.046 317.601C705.692 317.614 693.3 317.424 680.95 317.67ZM660.616 318.249L654.849 318.47C654.454 333.98 654.723 349.512 654.605 365.026L662.75 365.002L668.921 364.974C669.005 349.377 668.956 333.779 668.775 318.183L660.616 318.249ZM449.859 318.504L449.828 365.032C454.175 365.041 458.814 365.39 463.124 364.925C463.283 349.452 463.317 333.979 463.225 318.507L449.859 318.504ZM481.662 411.103L481.534 436.272L544.807 436.415C557.882 465.047 576.904 490.96 590.054 519.525C564.376 538.381 546.929 564.454 541.957 596.179C537.131 626.326 544.409 657.159 562.209 681.964C580.522 707.066 607.92 725.03 638.861 729.756C668.015 734.209 695.636 727.738 720.368 712.008C746.413 694.035 764.702 667.805 770.356 636.366C775.932 606.02 769.145 574.703 751.504 549.388C733.886 524.072 708.074 506.05 677.498 500.586C655.17 496.596 634.936 499.461 613.732 506.862L569.224 428.964C572.231 423.108 575.762 417.456 578.447 411.449C546.273 410.651 513.841 410.652 481.662 411.103ZM396.749 427.425L396.84 731.331C405.194 731.349 413.547 731.316 421.9 731.232L421.562 647.823C434.954 647.681 455.979 649.259 467.806 645.176C473.968 642.23 478.805 638.669 482.933 633.161C487.807 626.657 491.427 618.601 495.307 611.439L512.889 579.496C521.897 563.056 530.812 546.566 539.633 530.025C544.588 520.888 550.849 511.323 554.507 501.603C556.602 496.038 555.121 489.299 552.628 484.067C549.801 478.132 544.367 473.31 538.056 471.391C529.679 468.842 503.82 470.129 493.344 470.134L421.792 470.296C421.808 456.031 422.022 441.737 421.811 427.475L396.749 427.425Z"/><path d="M252.814 322.542C252.659 313.065 252.654 303.587 252.799 294.111C284.313 293.961 315.827 293.997 347.341 294.218L347.478 731.274L252.484 731.511L252.511 705.238C267.515 705.077 282.519 704.993 297.523 704.985C297.607 699.885 297.563 694.776 297.574 689.675C282.6 689.325 267.566 689.558 252.585 689.521C252.541 681.471 252.606 673.42 252.779 665.371C260.244 665.081 267.757 665.227 275.229 665.22L275.272 649.202C267.726 649.049 260.148 649.227 252.6 649.259C252.581 641.397 252.61 633.534 252.687 625.672C261.701 625.495 270.733 625.568 279.75 625.532L297.48 625.492L297.445 610.176C282.509 609.825 267.52 610.056 252.58 610.054L252.653 575.643L297.639 575.687C297.691 570.48 297.652 565.271 297.524 560.065C282.688 559.684 267.753 560.065 252.907 560.093L252.9 536.016L275.614 535.959C275.713 530.727 275.633 525.482 275.627 520.248C268.03 519.995 260.373 520.183 252.77 520.178C252.721 512.494 252.727 504.811 252.786 497.128L297.543 497.005L297.523 481.36C282.577 481.097 267.599 481.25 252.648 481.203L252.632 457.673L275.818 457.493C275.973 452.351 275.831 447.189 275.781 442.046L252.742 441.989C252.691 434.041 252.687 426.093 252.73 418.145C267.566 417.882 282.447 418.135 297.288 418.149L297.308 402.805C282.516 402.314 267.571 402.769 252.757 402.691C252.656 394.724 252.642 386.756 252.717 378.789L275.866 378.639C275.981 373.434 275.867 368.21 275.846 363.004L252.758 362.963L252.75 338.069C267.657 337.811 282.599 338.003 297.51 337.988L297.508 322.624C282.611 322.8 267.711 322.772 252.814 322.542Z"/><path d="M475.671 365.019C474.694 342.035 475.254 317.071 475.493 293.96L489.518 293.972L489.451 337.152C494.488 330.786 499.479 324.385 504.426 317.949L520.653 317.951C515.332 324.658 509.275 330.732 503.997 337.484C507.576 344.022 512.13 350.144 516.391 356.248C518.482 359.33 520.6 362.393 522.745 365.438C517.169 365.256 511.567 365.284 505.988 365.219C502.822 358.556 497.927 352.113 493.811 345.982C492.095 347.925 490.44 349.824 488.989 351.981C488.788 356.331 488.879 360.707 488.88 365.062L475.671 365.019Z"/><path d="M663.53 310.014C662.253 310.026 660.86 310.102 659.609 309.824C657.757 309.411 655.963 308.063 654.972 306.46C654.102 305.053 653.819 303.355 654.266 301.756C655.063 298.902 657.041 297.767 659.535 296.491C661.043 296.447 662.75 296.273 664.181 296.834C666.005 297.549 667.653 299.162 668.412 300.965C669.065 302.517 669.084 304.208 668.438 305.761C667.467 308.098 665.76 309.063 663.53 310.014Z"/><path d="M458.277 310.114C455.914 310.674 453.434 309.9 451.81 308.096C450.185 306.292 449.673 303.745 450.476 301.454C451.279 299.163 453.268 297.492 455.664 297.097C459.195 296.514 462.554 298.834 463.258 302.344C463.962 305.853 461.759 309.289 458.277 310.114Z"/><path d="M599.651 350.738C606.475 352.871 615.111 356.289 622.283 354.641C624.607 354.107 627.328 352.845 628.464 350.614C629.126 349.313 629.238 347.678 628.862 346.279C627.005 339.372 614.904 336.909 609.311 333.762C605.043 331.361 600.717 327.694 599.463 322.749C598.316 318.226 599.805 313.172 602.33 309.375C606.153 303.625 611.878 301.829 618.295 300.624C626.053 300.064 632.811 301.023 639.9 304.336C639.706 308.227 639.424 312.112 639.056 315.99C634.248 313.704 629.36 311.616 623.952 311.424C620.733 311.311 617.991 311.484 615.608 313.909C614.382 315.156 614.126 316.177 614.084 317.88C617.196 324.595 629.707 326.728 635.687 330.661C639.843 333.394 642.993 337.155 643.89 342.147C644.766 347.022 643.509 353.19 640.606 357.235C636.304 363.228 628.962 364.887 622.118 365.975C614.128 366.504 606.885 365.225 599.456 362.315L599.651 350.738Z"/><path d="M390.642 365.43C390.679 344.099 390.465 322.753 390.771 301.425C399.644 301.337 408.962 300.708 417.779 301.576C423.054 302.095 428.57 303.903 431.911 308.262C434.465 311.594 435.456 316.207 434.735 320.323C433.82 325.538 430.278 328.849 426.224 331.834C431.076 333.625 435.56 336.294 437.705 341.243C439.748 345.956 438.845 350.545 437.105 355.141C436.252 356.633 435.265 358.038 434.058 359.269C425.379 368.124 402.334 365.39 390.642 365.43ZM404.978 312.237C404.889 317.319 404.886 322.402 404.968 327.484C410.047 327.604 413.785 328.227 417.838 324.747C419.337 322.806 421.118 320.15 420.641 317.528C420.346 315.905 419.418 314.791 418.037 313.962C414.263 311.694 409.219 312.105 404.978 312.237ZM404.861 337.285L404.937 355.051C410.843 355.472 416.683 355.818 421.884 352.417C423.505 350.544 424.653 348.218 424.524 345.673C424.421 343.661 423.338 342.162 421.832 340.925C417.059 337.002 410.672 337.245 404.861 337.285Z"/><path fill="#E2E2E2" d="M404.968 327.484C404.886 322.402 404.889 317.319 404.978 312.237C409.219 312.105 414.263 311.694 418.037 313.962C419.418 314.791 420.346 315.905 420.641 317.528C421.118 320.15 419.337 322.806 417.838 324.747C413.785 328.227 410.047 327.604 404.968 327.484Z"/><path d="M568.489 362.999C564.958 364.073 561.411 365.027 557.757 365.585C549.286 366.879 539.193 366.693 532.09 361.254C527.299 357.585 524.895 352.116 524.149 346.241C523.204 338.796 524.603 330.783 529.375 324.814C533.809 319.269 539.479 317.398 546.264 316.682C546.744 316.668 547.224 316.648 547.705 316.656C554.067 316.767 560.684 318.002 565.168 322.914C570.795 329.079 570.697 337.103 570.492 344.891C561.323 345.057 552.136 344.608 542.972 344.8C541.389 344.833 539.408 344.733 538.294 345.904C538.255 346.863 538.263 347.619 538.538 348.55C539.341 351.269 540.728 353.001 543.277 354.293C550.345 357.875 561.267 354.925 568.272 352.485L568.489 362.999ZM547.104 326.108C543.711 327.101 541.533 328.431 539.832 331.629C539.092 333.02 538.467 334.483 537.871 335.94L549.574 335.981L557.899 336.037C556.893 332.759 556.113 328.934 552.887 327.097C551.246 326.163 548.955 326.065 547.104 326.108Z"/><path d="M769.116 362.639C766.599 363.52 764.091 364.382 761.48 364.943C752.654 366.838 742.086 366.969 734.346 361.687C729.421 358.324 726.349 353.2 725.304 347.365C723.993 340.045 725.356 331.677 729.69 325.565C733.753 319.836 739.049 317.811 745.668 316.623C746.766 316.57 747.864 316.536 748.963 316.521C754.984 316.456 761.046 318.014 765.369 322.442C771.491 328.712 771.564 336.877 771.285 345.03C763.075 344.835 749.082 343.66 741.525 344.51C740.178 344.662 739.91 344.493 739.036 345.578C739.055 346.561 739.108 347.345 739.435 348.283C740.465 351.238 742.161 353.164 745.052 354.436C751.952 357.473 760.707 355.268 767.376 352.68L767.832 352.492L768.615 352.919C769.336 355.971 769.086 359.5 769.116 362.639ZM746.039 326.102C741.912 328.616 740.317 331.03 738.715 335.544L752.125 335.613C754.106 335.592 755.645 335.872 757.37 334.798C757.89 333.451 758.205 332.681 757.487 331.275C756.349 329.045 753.538 326.909 751.172 326.158C749.572 325.65 747.679 325.96 746.039 326.102Z"/><path d="M680.817 328.196C680.747 324.675 680.807 321.188 680.95 317.67C693.3 317.424 705.692 317.614 718.046 317.601C718.17 321.142 718.141 324.695 718.169 328.238C711.447 337.264 703.268 345.16 696.77 354.343L718.413 354.438C718.485 357.23 719.18 362.401 717.914 364.81L716.625 365.056L679.422 365.011L678.996 356.606C686.278 346.478 694.257 337.144 702.793 328.062L680.817 328.196Z"/><path d="M654.849 318.47L660.616 318.249L668.775 318.183C668.956 333.779 669.005 349.377 668.921 364.974L662.75 365.002L654.605 365.026C654.723 349.512 654.454 333.98 654.849 318.47Z"/><path d="M449.828 365.032L449.859 318.504L463.225 318.507C463.317 333.979 463.283 349.452 463.124 364.925C458.814 365.39 454.175 365.041 449.828 365.032Z"/><path fill="#E2E2E2" d="M537.871 335.94C538.467 334.483 539.092 333.02 539.832 331.629C541.533 328.431 543.711 327.101 547.104 326.108C548.955 326.065 551.246 326.163 552.887 327.097C556.113 328.934 556.893 332.759 557.899 336.037L549.574 335.981L537.871 335.94Z"/><path fill="#E2E2E2" d="M738.715 335.544C740.317 331.03 741.912 328.616 746.039 326.102C747.679 325.96 749.572 325.65 751.172 326.158C753.538 326.909 756.349 329.045 757.487 331.275C758.205 332.681 757.89 333.451 757.37 334.798C755.645 335.872 754.106 335.592 752.125 335.613L738.715 335.544Z"/><path fill="#E2E2E2" d="M404.937 355.051L404.861 337.285C410.672 337.245 417.059 337.002 421.832 340.925C423.338 342.162 424.421 343.661 424.524 345.673C424.653 348.218 423.505 350.544 421.884 352.417C416.683 355.818 410.843 355.472 404.937 355.051Z"/><path d="M481.534 436.272L481.662 411.103C513.841 410.652 546.273 410.651 578.447 411.449C575.762 417.456 572.231 423.108 569.224 428.964L613.732 506.862C634.936 499.461 655.17 496.596 677.498 500.586C708.074 506.05 733.886 524.072 751.504 549.388C769.145 574.703 775.932 606.02 770.356 636.366C764.702 667.805 746.413 694.035 720.368 712.008C695.636 727.738 668.015 734.209 638.861 729.756C607.92 725.03 580.522 707.066 562.209 681.964C544.409 657.159 537.131 626.326 541.957 596.179C546.929 564.454 564.376 538.381 590.054 519.525C576.904 490.96 557.882 465.047 544.807 436.415L481.534 436.272ZM651.33 525.208C643.025 525.871 634.994 526.902 627.139 529.782C631.219 538.346 636.348 546.574 641.029 554.828C646.88 565.144 652.541 575.651 658.841 585.7C667.512 587.404 674.514 590.607 679.623 598.232C684.392 605.351 685.75 612.317 683.988 620.665C682.517 627.635 678.563 633.825 672.572 637.758C665.936 642.115 657.385 643.252 649.718 641.443C642.317 639.696 635.807 635.256 631.785 628.753C628.079 622.717 626.937 615.451 628.615 608.57C629.753 604.044 631.952 600.58 634.684 596.892C624.18 578.579 613.375 560.293 603.683 541.533C583.874 555.72 570.702 577.366 567.203 601.478C565.56 612.114 565.85 624.155 568.522 634.604C574.202 658.349 589.021 678.896 609.76 691.781C630.244 704.364 654.901 708.257 678.265 702.597C701.24 696.906 721.044 682.382 733.374 662.177C745.98 641.368 749.686 616.364 743.658 592.793C737.659 569.36 722.56 549.289 701.708 537.031C686.48 528.129 668.928 524.009 651.33 525.208Z"/><path d="M396.84 731.331L396.749 427.425L421.811 427.475C422.022 441.737 421.808 456.031 421.792 470.296L493.344 470.134C503.82 470.129 529.679 468.842 538.056 471.391C544.367 473.31 549.801 478.132 552.628 484.067C555.121 489.299 556.602 496.038 554.507 501.603C550.849 511.323 544.588 520.888 539.633 530.025C530.812 546.566 521.897 563.056 512.889 579.496L495.307 611.439C491.427 618.601 487.807 626.657 482.933 633.161C478.805 638.669 473.968 642.23 467.806 645.176C455.979 649.259 434.954 647.681 421.562 647.823L421.9 731.232C413.547 731.316 405.194 731.349 396.84 731.331ZM421.846 495.55L421.732 580.824C421.704 594.695 421.393 608.633 421.683 622.499C428.95 622.52 450.488 623.666 456.165 621.891C457.963 621.329 459.657 620.042 460.975 618.731C466.208 613.525 479.426 586.034 484.153 577.72C492.877 561.492 501.473 545.229 510.48 529.154C515.968 519.359 524.487 505.613 528.692 495.854L421.846 495.55Z"/><path fill="#E2E2E2" d="M421.683 622.499C421.393 608.633 421.704 594.695 421.732 580.824L421.846 495.55L528.692 495.854C524.487 505.613 515.968 519.359 510.48 529.154C501.473 545.229 492.877 561.492 484.153 577.72C479.426 586.034 466.208 613.525 460.975 618.731C459.657 620.042 457.963 621.329 456.165 621.891C450.488 623.666 428.95 622.52 421.683 622.499Z"/><path fill="#E2E2E2" d="M627.139 529.782C634.994 526.902 643.025 525.871 651.33 525.208C668.928 524.009 686.48 528.129 701.708 537.031C722.56 549.289 737.659 569.36 743.658 592.793C749.686 616.364 745.98 641.368 733.374 662.177C721.044 682.382 701.24 696.906 678.265 702.597C654.901 708.257 630.244 704.364 609.76 691.781C589.021 678.896 574.202 658.349 568.522 634.604C565.85 624.155 565.56 612.114 567.203 601.478C570.702 577.366 583.874 555.72 603.683 541.533C613.375 560.293 624.18 578.579 634.684 596.892C631.952 600.58 629.753 604.044 628.615 608.57C626.937 615.451 628.079 622.717 631.785 628.753C635.807 635.256 642.317 639.696 649.718 641.443C657.385 643.252 665.936 642.115 672.572 637.758C678.563 633.825 682.517 627.635 683.988 620.665C685.75 612.317 684.392 605.351 679.623 598.232C674.514 590.607 667.512 587.404 658.841 585.7C652.541 575.651 646.88 565.144 641.029 554.828C636.348 546.574 631.219 538.346 627.139 529.782Z"/></svg>